{
  "accessors": [
    {
      "bufferView": 2,
      "componentType": 5126,
      "count": 3181,
      "max": [
        44.057106018066406,
        14.070905685424805,
        73.19207763671875
      ],
      "min": [
        -33.71124267578125,
        -7.888648986816406,
        -72.94373321533203
      ],
      "type": "VEC3"
    },
    {
      "bufferView": 2,
      "byteOffset": 38172,
      "componentType": 5126,
      "count": 3181,
      "max": [
        1.0,
        0.9999794960021973,
        0.9999993443489075
      ],
      "min": [
        -1.0,
        -0.9993466138839722,
        -1.0
      ],
      "type": "VEC3"
    },
    {
      "bufferView": 1,
      "componentType": 5126,
      "count": 3181,
      "max": [
        0.9941400289535522,
        0.9941409826278687
      ],
      "min": [
        0.005859000142663717,
        0.005859000142663717
      ],
      "type": "VEC2"
    },
    {
      "bufferView": 0,
      "componentType": 5125,
      "count": 10386,
      "type": "SCALAR"
    },
    {
      "bufferView": 2,
      "byteOffset": 76344,
      "componentType": 5126,
      "count": 202,
      "max": [
        21.06299591064453,
        41.13975143432617,
        58.296016693115234
      ],
      "min": [
        -5.9787750244140625,
        14.59910774230957,
        -31.435497283935547
      ],
      "type": "VEC3"
    },
    {
      "bufferView": 2,
      "byteOffset": 78768,
      "componentType": 5126,
      "count": 202,
      "max": [
        0.996210515499115,
        0.994276762008667,
        0.9164372682571411
      ],
      "min": [
        -0.995875895023346,
        -0.9845073819160461,
        -0.9930654764175415
      ],
      "type": "VEC3"
    },
    {
      "bufferView": 1,
      "byteOffset": 25448,
      "componentType": 5126,
      "count": 202,
      "max": [
        0.3110029995441437,
        0.9994999766349792
      ],
      "min": [
        0.006320999935269356,
        0.0004990000161342323
      ],
      "type": "VEC2"
    },
    {
      "bufferView": 0,
      "byteOffset": 41544,
      "componentType": 5125,
      "count": 990,
      "type": "SCALAR"
    },
    {
      "bufferView": 2,
      "byteOffset": 81192,
      "componentType": 5126,
      "count": 63829,
      "max": [
        51.32200622558594,
        71.60881805419922,
        74.73786163330078
      ],
      "min": [
        -36.93511962890625,
        -3.298419952392578,
        -79.14710235595703
      ],
      "type": "VEC3"
    },
    {
      "bufferView": 2,
      "byteOffset": 847140,
      "componentType": 5126,
      "count": 63829,
      "max": [
        0.999984622001648,
        0.9999993443489075,
        0.9999798536300659
      ],
      "min": [
        -0.9999964833259583,
        -0.999995231628418,
        -0.9999591112136841
      ],
      "type": "VEC3"
    },
    {
      "bufferView": 1,
      "byteOffset": 27064,
      "componentType": 5126,
      "count": 63829,
      "max": [
        0.9945809841156006,
        0.9946290254592896
      ],
      "min": [
        0.005371000152081251,
        0.005371000152081251
      ],
      "type": "VEC2"
    },
    {
      "bufferView": 1,
      "byteOffset": 537696,
      "componentType": 5126,
      "count": 63829,
      "max": [
        0.9941409826278687,
        0.9924939870834351
      ],
      "min": [
        0.005859000142663717,
        0.005859000142663717
      ],
      "type": "VEC2"
    },
    {
      "bufferView": 0,
      "byteOffset": 45504,
      "componentType": 5125,
      "count": 296466,
      "type": "SCALAR"
    }
  ],
  "asset": {
    "extras": {
      "author": "ChrizArtz (https://sketchfab.com/ChrizArtz)",
      "license": "CC-BY-4.0 (http://creativecommons.org/licenses/by/4.0/)",
      "source": "https://sketchfab.com/3d-models/wisp-forest-f169a1ac9db244b39f8f5bb1d8772a47",
      "title": "Wisp Forest"
    },
    "generator": "Sketchfab-12.68.0",
    "version": "2.0"
  },
  "bufferViews": [
    {
      "buffer": 0,
      "byteLength": 1231368,
      "name": "floatBufferViews",
      "target": 34963
    },
    {
      "buffer": 0,
      "byteLength": 1048328,
      "byteOffset": 1231368,
      "byteStride": 8,
      "name": "floatBufferViews",
      "target": 34962
    },
    {
      "buffer": 0,
      "byteLength": 1613088,
      "byteOffset": 2279696,
      "byteStride": 12,
      "name": "floatBufferViews",
      "target": 34962
    }
  ],
  "buffers": [
    {
      "byteLength": 3892784,
      "uri": "scene.bin"
    }
  ],
  "extensionsUsed": [
    "KHR_materials_unlit"
  ],
  "images": [
    {
      "uri": "textures/aiStandardSurface3_baseColor.jpeg"
    },
    {
      "uri": "textures/aiStandardSurface3_emissive.png"
    },
    {
      "uri": "textures/M_wisp_tail_2_baseColor.png"
    },
    {
      "uri": "textures/M_Base_1_baseColor.jpeg"
    },
    {
      "uri": "textures/M_Base_1_emissive.png"
    }
  ],
  "materials": [
    {
      "doubleSided": true,
      "emissiveFactor": [
        0.0929019398,
        0.0929019398,
        0.0929019398
      ],
      "emissiveTexture": {
        "index": 1
      },
      "extensions": {
        "KHR_materials_unlit": {}
      },
      "name": "aiStandardSurface3",
      "pbrMetallicRoughness": {
        "baseColorFactor": [
          0.8986411557,
          0.8986411557,
          0.8986411557,
          1.0
        ],
        "baseColorTexture": {
          "index": 0
        },
        "metallicFactor": 0.0
      }
    },
    {
      "alphaCutoff": 0.1846551723,
      "alphaMode": "MASK",
      "doubleSided": true,
      "extensions": {
        "KHR_materials_unlit": {}
      },
      "name": "M_wisp_tail_2",
      "pbrMetallicRoughness": {
        "baseColorTexture": {
          "index": 2
        },
        "metallicFactor": 0.0
      }
    },
    {
      "doubleSided": true,
      "emissiveFactor": [
        0.06,
        0.06,
        0.06
      ],
      "emissiveTexture": {
        "index": 4
      },
      "extensions": {
        "KHR_materials_unlit": {}
      },
      "name": "M_Base_1",
      "pbrMetallicRoughness": {
        "baseColorTexture": {
          "index": 3
        },
        "metallicFactor": 0.0
      }
    }
  ],
  "meshes": [
    {
      "name": "defaultMaterial",
      "primitives": [
        {
          "attributes": {
            "NORMAL": 1,
            "POSITION": 0,
            "TEXCOORD_0": 2
          },
          "indices": 3,
          "material": 2,
          "mode": 4
        }
      ]
    },
    {
      "name": "defaultMaterial",
      "primitives": [
        {
          "attributes": {
            "NORMAL": 5,
            "POSITION": 4,
            "TEXCOORD_0": 6
          },
          "indices": 7,
          "material": 1,
          "mode": 4
        }
      ]
    },
    {
      "name": "defaultMaterial",
      "primitives": [
        {
          "attributes": {
            "NORMAL": 9,
            "POSITION": 8,
            "TEXCOORD_0": 10,
            "TEXCOORD_1": 11
          },
          "indices": 12,
          "material": 0,
          "mode": 4
        }
      ]
    }
  ],
  "nodes": [
    {
      "children": [
        1
      ],
      "matrix": [
        1.0,
        0.0,
        0.0,
        0.0,
        0.0,
        2.220446049250313e-16,
        -1.0,
        0.0,
        0.0,
        1.0,
        2.220446049250313e-16,
        0.0,
        0.0,
        0.0,
        0.0,
        1.0
      ],
      "name": "Sketchfab_model"
    },
    {
      "children": [
        2,
        4,
        6
      ],
      "matrix": [
        1.0,
        0.0,
        0.0,
        0.0,
        0.0,
        -4.371139006309477e-08,
        0.999999999999999,
        0.0,
        0.0,
        -0.999999999999999,
        -4.371139006309477e-08,
        0.0,
        0.0,
        0.0,
        0.0,
        1.0
      ],
      "name": "Collada visual scene group"
    },
    {
      "children": [
        3
      ],
      "name": "Ground_Floor_1"
    },
    {
      "mesh": 0,
      "name": "defaultMaterial"
    },
    {
      "children": [
        5
      ],
      "name": "Wisp"
    },
    {
      "mesh": 1,
      "name": "defaultMaterial"
    },
    {
      "children": [
        7
      ],
      "name": "Trees_1"
    },
    {
      "mesh": 2,
      "name": "defaultMaterial"
    }
  ],
  "samplers": [
    {
      "magFilter": 9729,
      "minFilter": 9987,
      "wrapS": 10497,
      "wrapT": 10497
    }
  ],
  "scene": 0,
  "scenes": [
    {
      "name": "Sketchfab_Scene",
      "nodes": [
        0
      ]
    }
  ],
  "textures": [
    {
      "sampler": 0,
      "source": 0
    },
    {
      "sampler": 0,
      "source": 1
    },
    {
      "sampler": 0,
      "source": 2
    },
    {
      "sampler": 0,
      "source": 3
    },
    {
      "sampler": 0,
      "source": 4
    }
  ]
}
