{
  "accessors": [
    {
      "bufferView": 2,
      "componentType": 5126,
      "count": 65532,
      "max": [
        24.280603408813477,
        0.655102014541626,
        33.03112030029297
      ],
      "min": [
        -25.290782928466797,
        -19.92217254638672,
        -38.837337493896484
      ],
      "type": "VEC3"
    },
    {
      "bufferView": 2,
      "byteOffset": 786384,
      "componentType": 5126,
      "count": 65532,
      "max": [
        0.9999983906745911,
        0.9999935626983643,
        0.9999971389770508
      ],
      "min": [
        -0.9999996423721313,
        -0.9999989867210388,
        -0.999986469745636
      ],
      "type": "VEC3"
    },
    {
      "bufferView": 1,
      "componentType": 5126,
      "count": 65532,
      "max": [
        0.9997559785842896,
        0.9997559785842896
      ],
      "min": [
        0.00024399999529123306,
        0.00024399999529123306
      ],
      "type": "VEC2"
    },
    {
      "bufferView": 0,
      "componentType": 5125,
      "count": 266505,
      "type": "SCALAR"
    },
    {
      "bufferView": 2,
      "byteOffset": 1572768,
      "componentType": 5126,
      "count": 65532,
      "max": [
        20.112974166870117,
        -0.09026099741458893,
        33.01869201660156
      ],
      "min": [
        -25.254228591918945,
        -20.26294708251953,
        -38.77737808227539
      ],
      "type": "VEC3"
    },
    {
      "bufferView": 2,
      "byteOffset": 2359152,
      "componentType": 5126,
      "count": 65532,
      "max": [
        0.9999885559082031,
        0.9999621510505676,
        0.9999804496765137
      ],
      "min": [
        -0.9999990463256836,
        -0.9999988675117493,
        -0.9999996423721313
      ],
      "type": "VEC3"
    },
    {
      "bufferView": 1,
      "byteOffset": 524256,
      "componentType": 5126,
      "count": 65532,
      "max": [
        0.9997559785842896,
        0.9997559785842896
      ],
      "min": [
        0.00024399999529123306,
        0.00024399999529123306
      ],
      "type": "VEC2"
    },
    {
      "bufferView": 0,
      "byteOffset": 1066020,
      "componentType": 5125,
      "count": 244971,
      "type": "SCALAR"
    },
    {
      "bufferView": 2,
      "byteOffset": 3145536,
      "componentType": 5126,
      "count": 65532,
      "max": [
        24.3161563873291,
        -0.05558900162577629,
        33.03788757324219
      ],
      "min": [
        -25.321575164794922,
        -19.92217254638672,
        -38.83137512207031
      ],
      "type": "VEC3"
    },
    {
      "bufferView": 2,
      "byteOffset": 3931920,
      "componentType": 5126,
      "count": 65532,
      "max": [
        0.999985933303833,
        0.9999943971633911,
        0.9999910593032837
      ],
      "min": [
        -0.9999974370002747,
        -0.9999922513961792,
        -0.9999969005584717
      ],
      "type": "VEC3"
    },
    {
      "bufferView": 1,
      "byteOffset": 1048512,
      "componentType": 5126,
      "count": 65532,
      "max": [
        0.9997559785842896,
        0.9997559785842896
      ],
      "min": [
        0.00024399999529123306,
        0.00024399999529123306
      ],
      "type": "VEC2"
    },
    {
      "bufferView": 0,
      "byteOffset": 2045904,
      "componentType": 5125,
      "count": 221322,
      "type": "SCALAR"
    },
    {
      "bufferView": 2,
      "byteOffset": 4718304,
      "componentType": 5126,
      "count": 65532,
      "max": [
        24.236591339111328,
        -0.09026099741458893,
        30.09113883972168
      ],
      "min": [
        -25.250097274780273,
        -16.8004207611084,
        -38.83147430419922
      ],
      "type": "VEC3"
    },
    {
      "bufferView": 2,
      "byteOffset": 5504688,
      "componentType": 5126,
      "count": 65532,
      "max": [
        0.9999951720237732,
        0.9999694228172302,
        0.9999973773956299
      ],
      "min": [
        -0.9999996423721313,
        -0.9999974966049194,
        -0.9999914169311523
      ],
      "type": "VEC3"
    },
    {
      "bufferView": 1,
      "byteOffset": 1572768,
      "componentType": 5126,
      "count": 65532,
      "max": [
        0.9997559785842896,
        0.9997559785842896
      ],
      "min": [
        0.00024399999529123306,
        0.00024399999529123306
      ],
      "type": "VEC2"
    },
    {
      "bufferView": 0,
      "byteOffset": 2931192,
      "componentType": 5125,
      "count": 184509,
      "type": "SCALAR"
    },
    {
      "bufferView": 2,
      "byteOffset": 6291072,
      "componentType": 5126,
      "count": 65532,
      "max": [
        24.263473510742188,
        -0.13714399933815002,
        33.005428314208984
      ],
      "min": [
        -25.260286331176758,
        -20.110794067382813,
        -19.00316047668457
      ],
      "type": "VEC3"
    },
    {
      "bufferView": 2,
      "byteOffset": 7077456,
      "componentType": 5126,
      "count": 65532,
      "max": [
        0.9999857544898987,
        0.9999003410339355,
        0.9999750852584839
      ],
      "min": [
        -0.9999961853027344,
        -0.9999910593032837,
        -0.9999995231628418
      ],
      "type": "VEC3"
    },
    {
      "bufferView": 1,
      "byteOffset": 2097024,
      "componentType": 5126,
      "count": 65532,
      "max": [
        0.9997559785842896,
        0.9997559785842896
      ],
      "min": [
        0.00024399999529123306,
        0.00024399999529123306
      ],
      "type": "VEC2"
    },
    {
      "bufferView": 0,
      "byteOffset": 3669228,
      "componentType": 5125,
      "count": 190305,
      "type": "SCALAR"
    },
    {
      "bufferView": 2,
      "byteOffset": 7863840,
      "componentType": 5126,
      "count": 43152,
      "max": [
        19.815763473510742,
        -0.09026099741458893,
        27.424030303955078
      ],
      "min": [
        -13.601753234863281,
        -20.208765029907227,
        -38.7613410949707
      ],
      "type": "VEC3"
    },
    {
      "bufferView": 2,
      "byteOffset": 8381664,
      "componentType": 5126,
      "count": 43152,
      "max": [
        0.9999094605445862,
        0.9993440508842468,
        0.9999805092811584
      ],
      "min": [
        -0.9999961853027344,
        -0.9999980330467224,
        -0.9998342394828796
      ],
      "type": "VEC3"
    },
    {
      "bufferView": 1,
      "byteOffset": 2621280,
      "componentType": 5126,
      "count": 43152,
      "max": [
        0.9997559785842896,
        0.9997559785842896
      ],
      "min": [
        0.00024399999529123306,
        0.00024399999529123306
      ],
      "type": "VEC2"
    },
    {
      "bufferView": 0,
      "byteOffset": 4430448,
      "componentType": 5125,
      "count": 107196,
      "type": "SCALAR"
    },
    {
      "bufferView": 2,
      "byteOffset": 8899488,
      "componentType": 5126,
      "count": 65532,
      "max": [
        24.273958206176758,
        -0.09026099741458893,
        33.01796340942383
      ],
      "min": [
        -25.3622989654541,
        -20.22317123413086,
        -38.839683532714844
      ],
      "type": "VEC3"
    },
    {
      "bufferView": 2,
      "byteOffset": 9685872,
      "componentType": 5126,
      "count": 65532,
      "max": [
        0.9999638199806213,
        0.999102771282196,
        0.9999960064888
      ],
      "min": [
        -0.9999889731407166,
        -0.999994158744812,
        -0.9999974966049194
      ],
      "type": "VEC3"
    },
    {
      "bufferView": 1,
      "byteOffset": 2966496,
      "componentType": 5126,
      "count": 65532,
      "max": [
        1.9997559785842896,
        0.6970210075378418
      ],
      "min": [
        1.0002440214157104,
        0.00024399999529123306
      ],
      "type": "VEC2"
    },
    {
      "bufferView": 0,
      "byteOffset": 4859232,
      "componentType": 5125,
      "count": 241383,
      "type": "SCALAR"
    },
    {
      "bufferView": 2,
      "byteOffset": 10472256,
      "componentType": 5126,
      "count": 65532,
      "max": [
        24.22141456604004,
        -0.09026099741458893,
        28.720748901367188
      ],
      "min": [
        -25.281553268432617,
        -18.137596130371094,
        -38.8232536315918
      ],
      "type": "VEC3"
    },
    {
      "bufferView": 2,
      "byteOffset": 11258640,
      "componentType": 5126,
      "count": 65532,
      "max": [
        0.9999901652336121,
        0.9991052150726318,
        0.9999911785125732
      ],
      "min": [
        -0.9999889731407166,
        -0.9999818801879883,
        -0.9999947547912598
      ],
      "type": "VEC3"
    },
    {
      "bufferView": 1,
      "byteOffset": 3490752,
      "componentType": 5126,
      "count": 65532,
      "max": [
        1.9997559785842896,
        0.689208984375
      ],
      "min": [
        1.0002440214157104,
        0.00024399999529123306
      ],
      "type": "VEC2"
    },
    {
      "bufferView": 0,
      "byteOffset": 5824764,
      "componentType": 5125,
      "count": 241947,
      "type": "SCALAR"
    },
    {
      "bufferView": 2,
      "byteOffset": 12045024,
      "componentType": 5126,
      "count": 65533,
      "max": [
        23.920331954956055,
        -0.09026099741458893,
        33.011016845703125
      ],
      "min": [
        -25.270017623901367,
        -14.719866752624512,
        -38.75569534301758
      ],
      "type": "VEC3"
    },
    {
      "bufferView": 2,
      "byteOffset": 12831420,
      "componentType": 5126,
      "count": 65533,
      "max": [
        0.9999886751174927,
        0.9996803402900696,
        0.99997478723526
      ],
      "min": [
        -0.9999977350234985,
        -0.9999734163284302,
        -0.9999971985816956
      ],
      "type": "VEC3"
    },
    {
      "bufferView": 1,
      "byteOffset": 4015008,
      "componentType": 5126,
      "count": 65533,
      "max": [
        1.9997559785842896,
        0.6784669756889343
      ],
      "min": [
        1.0002440214157104,
        0.00024399999529123306
      ],
      "type": "VEC2"
    },
    {
      "bufferView": 0,
      "byteOffset": 6792552,
      "componentType": 5125,
      "count": 204585,
      "type": "SCALAR"
    },
    {
      "bufferView": 2,
      "byteOffset": 13617816,
      "componentType": 5126,
      "count": 45741,
      "max": [
        24.3161563873291,
        -0.05558900162577629,
        33.01490020751953
      ],
      "min": [
        -25.285097122192383,
        -20.21980857849121,
        -38.828670501708984
      ],
      "type": "VEC3"
    },
    {
      "bufferView": 2,
      "byteOffset": 14166708,
      "componentType": 5126,
      "count": 45741,
      "max": [
        0.9999944567680359,
        0.9999998807907104,
        0.9999858140945435
      ],
      "min": [
        -0.9999744296073914,
        -0.9999813437461853,
        -0.9999912977218628
      ],
      "type": "VEC3"
    },
    {
      "bufferView": 1,
      "byteOffset": 4539272,
      "componentType": 5126,
      "count": 45741,
      "max": [
        1.9997559785842896,
        0.6842100024223328
      ],
      "min": [
        1.0002440214157104,
        0.00024399999529123306
      ],
      "type": "VEC2"
    },
    {
      "bufferView": 0,
      "byteOffset": 7610892,
      "componentType": 5125,
      "count": 103197,
      "type": "SCALAR"
    }
  ],
  "asset": {
    "extras": {
      "author": "Fovea (https://sketchfab.com/3dfovea)",
      "license": "CC-BY-4.0 (http://creativecommons.org/licenses/by/4.0/)",
      "source": "https://sketchfab.com/3d-models/agrippa-pantheon-074e9fe9154f41169cb2e79f5330e58f",
      "title": "Agrippa Pantheon"
    },
    "generator": "Sketchfab-12.68.0",
    "version": "2.0"
  },
  "bufferViews": [
    {
      "buffer": 0,
      "byteLength": 8023680,
      "name": "floatBufferViews",
      "target": 34963
    },
    {
      "buffer": 0,
      "byteLength": 4905200,
      "byteOffset": 8023680,
      "byteStride": 8,
      "name": "floatBufferViews",
      "target": 34962
    },
    {
      "buffer": 0,
      "byteLength": 14715600,
      "byteOffset": 12928880,
      "byteStride": 12,
      "name": "floatBufferViews",
      "target": 34962
    }
  ],
  "buffers": [
    {
      "byteLength": 27644480,
      "uri": "scene.bin"
    }
  ],
  "extensionsUsed": [
    "KHR_materials_unlit"
  ],
  "images": [
    {
      "uri": "textures/PANTEON_ROMA_FOVEA_R0_Material_u1_v1_baseColor.jpeg"
    },
    {
      "uri": "textures/PANTEON_ROMA_FOVEA_R0_Material_u2_v1_baseColor.jpeg"
    }
  ],
  "materials": [
    {
      "doubleSided": true,
      "extensions": {
        "KHR_materials_unlit": {}
      },
      "name": "PANTEON_ROMA_FOVEA_R0_Material_u1_v1",
      "pbrMetallicRoughness": {
        "baseColorTexture": {
          "index": 0
        },
        "metallicFactor": 0.0
      }
    },
    {
      "doubleSided": true,
      "extensions": {
        "KHR_materials_unlit": {}
      },
      "name": "PANTEON_ROMA_FOVEA_R0_Material_u2_v1",
      "pbrMetallicRoughness": {
        "baseColorTexture": {
          "index": 1
        },
        "metallicFactor": 0.0
      }
    }
  ],
  "meshes": [
    {
      "name": "Object_0",
      "primitives": [
        {
          "attributes": {
            "NORMAL": 1,
            "POSITION": 0,
            "TEXCOORD_0": 2
          },
          "indices": 3,
          "material": 0,
          "mode": 4
        }
      ]
    },
    {
      "name": "Object_1",
      "primitives": [
        {
          "attributes": {
            "NORMAL": 5,
            "POSITION": 4,
            "TEXCOORD_0": 6
          },
          "indices": 7,
          "material": 0,
          "mode": 4
        }
      ]
    },
    {
      "name": "Object_2",
      "primitives": [
        {
          "attributes": {
            "NORMAL": 9,
            "POSITION": 8,
            "TEXCOORD_0": 10
          },
          "indices": 11,
          "material": 0,
          "mode": 4
        }
      ]
    },
    {
      "name": "Object_3",
      "primitives": [
        {
          "attributes": {
            "NORMAL": 13,
            "POSITION": 12,
            "TEXCOORD_0": 14
          },
          "indices": 15,
          "material": 0,
          "mode": 4
        }
      ]
    },
    {
      "name": "Object_4",
      "primitives": [
        {
          "attributes": {
            "NORMAL": 17,
            "POSITION": 16,
            "TEXCOORD_0": 18
          },
          "indices": 19,
          "material": 0,
          "mode": 4
        }
      ]
    },
    {
      "name": "Object_5",
      "primitives": [
        {
          "attributes": {
            "NORMAL": 21,
            "POSITION": 20,
            "TEXCOORD_0": 22
          },
          "indices": 23,
          "material": 0,
          "mode": 4
        }
      ]
    },
    {
      "name": "Object_6",
      "primitives": [
        {
          "attributes": {
            "NORMAL": 25,
            "POSITION": 24,
            "TEXCOORD_0": 26
          },
          "indices": 27,
          "material": 1,
          "mode": 4
        }
      ]
    },
    {
      "name": "Object_7",
      "primitives": [
        {
          "attributes": {
            "NORMAL": 29,
            "POSITION": 28,
            "TEXCOORD_0": 30
          },
          "indices": 31,
          "material": 1,
          "mode": 4
        }
      ]
    },
    {
      "name": "Object_8",
      "primitives": [
        {
          "attributes": {
            "NORMAL": 33,
            "POSITION": 32,
            "TEXCOORD_0": 34
          },
          "indices": 35,
          "material": 1,
          "mode": 4
        }
      ]
    },
    {
      "name": "Object_9",
      "primitives": [
        {
          "attributes": {
            "NORMAL": 37,
            "POSITION": 36,
            "TEXCOORD_0": 38
          },
          "indices": 39,
          "material": 1,
          "mode": 4
        }
      ]
    }
  ],
  "nodes": [
    {
      "children": [
        1
      ],
      "matrix": [
        1.243609070777893,
        0.0,
        0.0,
        0.0,
        0.0,
        -1.243609070777893,
        -5.522733696041251e-16,
        0.0,
        0.0,
        5.522733696041251e-16,
        -1.243609070777893,
        0.0,
        0.0,
        -12.704774856567385,
        6.902948379516599,
        1.0
      ],
      "name": "Sketchfab_model"
    },
    {
      "children": [
        2,
        3,
        4,
        5,
        6,
        7,
        8,
        9,
        10,
        11
      ],
      "name": "PANTEON_ROMA_FOVEA_R0.obj.cleaner.materialmerger.gles"
    },
    {
      "mesh": 0,
      "name": "Object_2"
    },
    {
      "mesh": 1,
      "name": "Object_3"
    },
    {
      "mesh": 2,
      "name": "Object_4"
    },
    {
      "mesh": 3,
      "name": "Object_5"
    },
    {
      "mesh": 4,
      "name": "Object_6"
    },
    {
      "mesh": 5,
      "name": "Object_7"
    },
    {
      "mesh": 6,
      "name": "Object_8"
    },
    {
      "mesh": 7,
      "name": "Object_9"
    },
    {
      "mesh": 8,
      "name": "Object_10"
    },
    {
      "mesh": 9,
      "name": "Object_11"
    }
  ],
  "samplers": [
    {
      "magFilter": 9729,
      "minFilter": 9987,
      "wrapS": 10497,
      "wrapT": 10497
    }
  ],
  "scene": 0,
  "scenes": [
    {
      "name": "Sketchfab_Scene",
      "nodes": [
        0
      ]
    }
  ],
  "textures": [
    {
      "sampler": 0,
      "source": 0
    },
    {
      "sampler": 0,
      "source": 1
    }
  ]
}
